
<svg width="146" height="50" viewBox="0 0 146 50" fill="none" xmlns="http://www.w3.org/2000/svg">
<path fill-rule="evenodd" clip-rule="evenodd" d="M4.51614 0.161291V0.967743H3.06452V5.96774H2.25807V0.967743H0.806458V0.161291H4.51614Z" fill="white"/>
<path fill-rule="evenodd" clip-rule="evenodd" d="M15 0.161291V2.41936H16.7742V0.161291H17.5806V5.80645H16.7742V3.22581H15V5.96774H14.1935V0.161291H15Z" fill="white"/>
<path fill-rule="evenodd" clip-rule="evenodd" d="M30.8065 0.161291V0.967743H28.5484V2.58065H30.6452V3.3871H28.5484V5.16129H30.8065V5.96774H27.742V0.161291H30.8065Z" fill="white"/>
<path d="M56.9355 3.06452C56.9355 5.16129 56.2904 6.12903 55 6.12903C53.7097 6.12903 53.0646 5.16129 53.0646 3.06452C53.0646 0.967742 53.7097 0 55 0C56.2904 0 56.9355 0.967742 56.9355 3.06452ZM55 5.32258C55.6452 5.32258 55.9678 4.83871 55.9678 2.90323C55.9678 0.967742 55.4839 0.645161 55 0.645161C54.3549 0.645161 54.0323 1.12903 54.0323 2.90323C54.0323 4.67742 54.3549 5.32258 55 5.32258Z" fill="white"/>
<path fill-rule="evenodd" clip-rule="evenodd" d="M70 0.161291V0.967743H67.7419V2.58065H69.8387V3.3871H67.7419V5.96774H66.9355V0.161291H70Z" fill="white"/>
<path fill-rule="evenodd" clip-rule="evenodd" d="M82.742 0.161291V0.967743H80.6452V2.58065H82.5807V3.3871H80.6452V5.96774H79.6775V0.161291H82.742Z" fill="white"/>
<path fill-rule="evenodd" clip-rule="evenodd" d="M93.3871 0.161291V5.80645H92.5807V0.161291H93.3871Z" fill="white"/>
<path fill-rule="evenodd" clip-rule="evenodd" d="M106.613 1.77419V1.93548H105.645C105.645 1.12903 105.323 0.806452 104.839 0.806452C104.032 0.806452 103.871 1.29032 103.871 3.06452C103.871 5 104.194 5.48387 104.839 5.48387C105.484 5.48387 105.806 5 105.806 4.03226V3.87097H106.774V4.03226C106.774 5.48387 106.129 6.12903 105 6.12903C103.548 6.12903 103.065 5.32258 103.065 3.06452C103.065 0.806452 103.548 0 105 0C106.129 0 106.613 0.806452 106.613 1.77419Z" fill="white"/>
<path fill-rule="evenodd" clip-rule="evenodd" d="M117.258 0.161291V5.80645H116.452V0.161291H117.258Z" fill="white"/>
<path d="M129.516 0.161291L131.129 5.96774H130.161L129.839 4.51613H128.065L127.581 5.96774H126.613L128.226 0.161291H129.516ZM128.226 3.70968H129.677L129.032 0.967743L128.226 3.70968Z" fill="white"/>
<path fill-rule="evenodd" clip-rule="evenodd" d="M141.452 0.161291V5.16129H143.71V5.96774H140.484V0.161291H141.452Z" fill="white"/>
<path fill-rule="evenodd" clip-rule="evenodd" d="M1.29032 43.871L2.25806 48.2258L3.06452 43.871H4.35484V49.6774H3.54839V44.8387L2.58065 49.6774H1.93548L0.806452 44.8387V49.6774H0V43.871H1.29032Z" fill="white"/>
<path d="M24.0322 43.871L25.6451 49.6774H24.6774L24.3548 48.2258H22.5806L22.0967 49.6774H21.129L22.7419 43.871H24.0322ZM22.7419 47.5806H24.1935L23.5484 44.6774L22.7419 47.5806Z" fill="white"/>
<path fill-rule="evenodd" clip-rule="evenodd" d="M45.9677 45.4839L45.1613 45.6452V45.4839C45.1613 45.1613 45.1613 44.5161 44.3548 44.5161C43.5484 44.5161 43.3871 45.1613 43.3871 46.7742C43.3871 48.7097 43.7097 49.1936 44.3548 49.1936C45.1613 49.1936 45.3226 48.7097 45.3226 47.4194H44.3548V46.7742H46.2903V49.8387H45.6451V49.1936C45.1613 49.6774 44.8387 50 44.1935 50C42.9032 50 42.4193 49.1936 42.4193 46.9355C42.4193 44.8387 43.0645 43.871 44.3548 43.871C45.6451 43.871 45.9677 44.6774 45.9677 45.4839Z" fill="white"/>
<path d="M65.8065 43.871L67.4194 49.6774H66.4516L66.129 48.2258H64.3548L63.871 49.6774H62.9032L64.5161 43.871H65.8065ZM64.5161 47.5806H65.9677L65.3226 44.6774L64.5161 47.5806Z" fill="white"/>
<path fill-rule="evenodd" clip-rule="evenodd" d="M87.5806 43.871V44.6774L85.1613 48.871H87.5806V49.6774H84.0322V49.0323L86.4516 44.6774H84.1935V43.871H87.5806Z" fill="white"/>
<path fill-rule="evenodd" clip-rule="evenodd" d="M105.323 43.871V49.6774H104.516V43.871H105.323Z" fill="white"/>
<path fill-rule="evenodd" clip-rule="evenodd" d="M123.387 43.871L125 48.2258V43.871H125.968V49.6774H124.839L123.065 45.1613V49.6774H122.258V43.871H123.387Z" fill="white"/>
<path fill-rule="evenodd" clip-rule="evenodd" d="M145.806 43.871V44.6774H143.71V46.2903H145.806V47.0968H143.71V49.0323H145.968V49.8387H142.742V44.0323H145.806V43.871Z" fill="white"/>
<path fill-rule="evenodd" clip-rule="evenodd" d="M144.032 34.9116V31.2019V18.9438H136.936V21.5245H139.032V31.2019V34.9116H136.936V37.8148H145.968V34.9116H144.032Z" fill="white"/>
<path d="M105.302 35.1197V33.1842V31.0874V22.539C105.302 19.3132 103.528 18.6681 98.3663 18.6681C92.8824 18.6681 90.947 19.4745 90.947 23.1842V24.7971H95.6244V23.3455C95.6244 21.41 95.7857 21.0874 98.205 21.0874C100.302 21.0874 100.302 21.41 100.302 23.3455V27.2164H97.5599H95.4631C91.7534 27.2164 90.6244 28.8293 90.4631 31.2487C90.4631 31.41 90.4631 31.41 90.4631 31.41V33.9906C90.4631 36.2487 92.2373 38.0229 94.8179 38.0229H107.237V35.1197H105.302ZM100.302 31.0874V31.5713V33.5068C100.302 34.9584 99.4953 35.281 98.5276 35.281H96.7534C95.6244 35.281 95.1405 34.4745 95.1405 33.5068V31.5713V31.0874V30.9261C95.1405 29.9584 95.7857 29.1519 96.7534 29.1519H98.6889H100.302V31.0874Z" fill="white"/>
<path d="M30.1405 18.6681H29.4953C23.8502 18.6681 22.2373 19.9584 22.2373 23.3455V31.2487V33.9906C22.2373 37.539 24.334 38.1842 29.4953 38.3455H30.1405C35.7857 38.1842 37.5599 37.8616 37.5599 34.4745V31.7326H32.7211V33.1842C32.7211 35.1197 32.3986 35.281 29.9792 35.281C27.2373 35.281 27.3986 34.9584 27.3986 33.1842V31.0874V29.6358H37.5599V22.3777C37.3986 19.7971 35.4631 18.6681 30.1405 18.6681ZM32.2373 27.7003H27.3986V22.7003C27.3986 21.7326 27.7211 21.2487 28.8502 21.2487H30.947C31.9147 21.2487 32.3986 21.7326 32.3986 22.3777V27.7003H32.2373Z" fill="white"/>
<path fill-rule="evenodd" clip-rule="evenodd" d="M139.032 11.6857V15.0728H144.032V11.6857" fill="white"/>
<path fill-rule="evenodd" clip-rule="evenodd" d="M80 18.6212C77.4193 18.6212 75.6452 21.847 74.5161 23.2987V18.9438H67.5806V21.5245H69.3548V31.0406V34.9116H67.4193V37.8148H76.129V34.9116H74.3548V31.0406V27.6535C74.3548 27.0083 78.3871 21.847 78.3871 22.3309V29.4277H83.2258V21.3632C83.3871 19.7503 82.2581 18.6212 80 18.6212Z" fill="white"/>
<path fill-rule="evenodd" clip-rule="evenodd" d="M0.806452 11.6857V15.0728H3.70968V31.2019V35.0728H0V37.8148H13.871V35.0728H9.03226V31.2019V26.2019H11.7742V28.6212H15V20.718H11.7742V22.9761H9.03226V15.0728H134.839V11.6857" fill="white"/>
<path fill-rule="evenodd" clip-rule="evenodd" d="M57.3829 18.6628C54.8023 18.6628 53.0281 21.8887 51.899 23.3403V18.9854H44.8023V21.5661H46.7377V31.0822V34.9532H44.8023V37.8564H53.5119V34.9532H51.7377V31.0822V27.6951C51.7377 27.0499 55.77 21.8887 55.77 22.3725V29.4693H60.6087V21.4048C60.77 19.7919 59.4797 18.6628 57.3829 18.6628Z" fill="white"/>
<path fill-rule="evenodd" clip-rule="evenodd" d="M126.415 18.6628C123.835 18.6628 122.06 21.8887 120.931 23.3403V18.9854H113.996V21.5661H115.931V31.0822V34.9532H113.996V37.8564H122.706V34.9532H120.931V31.0822V27.6951C120.931 27.0499 124.964 21.8887 124.964 22.3725V29.4693H129.802V21.4048C129.802 19.7919 128.673 18.6628 126.415 18.6628Z" fill="white"/>
</svg>
